<?xml version="1.0" encoding="UTF-8"?>
<svg version="1.1" xmlns="http://www.w3.org/2000/svg" width="1024" height="1024">
<path d="M0 0 C337.92 0 675.84 0 1024 0 C1024 337.92 1024 675.84 1024 1024 C686.08 1024 348.16 1024 0 1024 C0 686.08 0 348.16 0 0 Z " fill="#FEFEFE" transform="translate(0,0)"/>
<path d="M0 0 C0.68814377 -0.00265183 1.37628753 -0.00530365 2.08528414 -0.00803584 C4.39623142 -0.01570868 6.70712538 -0.01628724 9.01808453 -0.01688576 C10.6897915 -0.02090173 12.36149751 -0.02534018 14.03320235 -0.03016531 C18.63145563 -0.042122 23.22969842 -0.04777719 27.82796419 -0.05234647 C32.78597251 -0.05830612 37.74396832 -0.06991519 42.70196819 -0.08063698 C54.67929895 -0.10515464 66.65663385 -0.11978823 78.63398197 -0.13269705 C82.01805438 -0.13640977 85.40212638 -0.14038295 88.78619838 -0.14444971 C109.80862059 -0.16968959 130.83104346 -0.19173899 151.85347748 -0.20417786 C156.72253007 -0.20710748 161.59158264 -0.21006915 166.46063519 -0.21308327 C168.27586879 -0.21420234 168.27586879 -0.21420234 170.12777378 -0.21534403 C189.71996627 -0.22799046 209.31206786 -0.26120416 228.90421788 -0.3028851 C249.02771486 -0.34534473 269.15116537 -0.36887764 289.27470702 -0.37409842 C300.56972967 -0.37750821 311.86461033 -0.38921228 323.15958881 -0.42220116 C332.78171467 -0.45025832 342.40366941 -0.46117618 352.02583299 -0.4500057 C356.93115714 -0.44483336 361.83612329 -0.44761284 366.741395 -0.47247124 C371.24184482 -0.49508662 375.74168203 -0.49412935 380.24214347 -0.47526737 C381.86071523 -0.47248445 383.47932964 -0.47796957 385.09783325 -0.4930803 C397.95222302 -0.60564667 412.24431895 0.746469 422.42865276 9.48857689 C424.79092245 11.85645767 427.01155114 14.30314683 429.15912151 16.86748314 C432.15169205 20.41581677 435.313908 23.80780506 438.44818401 27.23076439 C440.46337618 29.46187 442.44628594 31.71086155 444.41693401 33.98076439 C448.03640085 38.12904943 451.78755041 42.14063418 455.57318401 46.13701439 C459.93825772 50.7450922 464.21076291 55.40635442 468.37201214 60.19951439 C471.04105304 63.23934053 473.80611488 66.1866431 476.57318401 69.13701439 C480.07027292 72.88016712 483.5456583 76.62683505 486.88568401 80.51201439 C489.79761153 83.89128829 492.92311393 87.00467179 496.10052776 90.13310814 C498.63840682 92.71119122 500.97934954 95.43278264 503.33099651 98.17998314 C505.6848584 100.82411947 508.21614266 103.26112916 510.78802776 105.69170189 C512.07318401 107.13701439 512.07318401 107.13701439 512.07318401 109.13701439 C512.73318401 109.13701439 513.39318401 109.13701439 514.07318401 109.13701439 C515.37787151 110.42998314 515.37787151 110.42998314 516.94818401 112.32451439 C519.71134653 115.59059561 522.56036038 118.73634465 525.49945354 121.84233665 C537.29242495 134.35430244 545.55718202 145.9474674 545.33880901 163.61748314 C544.96260739 168.60215469 543.63716712 171.89631208 541.07318401 176.13701439 C540.48666058 177.13603783 539.90013714 178.13506126 539.29584026 179.16435814 C534.05591599 187.80479338 527.88824907 195.69108757 521.63177776 203.60967064 C518.29192442 207.8384652 515.04230637 212.12839728 511.82318401 216.44951439 C507.94513189 221.64848061 504.02674374 226.81001924 500.05902386 231.94096947 C496.30862971 236.80473894 492.62714842 241.71908928 488.94818401 246.63701439 C482.95718033 254.64535019 476.91345156 262.61170823 470.84418011 270.56084251 C466.41783038 276.36185513 462.02561514 282.18686515 457.65716839 288.03154564 C452.74322213 294.596737 447.76573682 301.11317523 442.79071331 307.63213158 C438.60937551 313.11338016 434.45735711 318.61428082 430.33099651 324.13701439 C426.94460979 328.63657321 423.51287302 333.10119489 420.08685589 337.57060814 C415.81407733 343.15158315 411.59099273 348.76821911 407.38251019 354.39775658 C403.91178466 359.03456787 400.39557951 363.63355631 396.85272503 368.21538353 C393.63360027 372.38704788 390.47423718 376.60128871 387.32318401 380.82451439 C382.41364992 387.39781299 377.40452889 393.88804397 372.35541058 400.35454369 C368.3974972 405.42582396 364.4729527 410.52090767 360.57318401 415.63701439 C356.02552174 421.60273499 351.43738863 427.53512339 346.82318401 433.44951439 C342.35199366 439.18393393 337.9325676 444.94964753 333.58880901 450.78154564 C329.55993691 456.17530784 325.4536907 461.51093494 321.36761761 466.86137962 C316.64755682 473.04994037 311.97608152 479.27287449 307.32318401 485.51201439 C302.54349054 491.91464963 297.6628031 498.21014157 292.6308012 504.41582298 C288.48125903 509.56053554 284.51949319 514.83540711 280.57318401 520.13701439 C275.71229759 526.66729616 270.7592057 533.0919199 265.63177776 539.41435814 C261.48221646 544.55981416 257.5199241 549.83498429 253.57318401 555.13701439 C248.66652795 561.72703474 243.68089481 568.22716081 238.50213909 574.60552025 C235.83344216 577.90214586 233.22940869 581.23428224 230.68646526 584.62920189 C230.11492718 585.3901516 229.54338909 586.1511013 228.95453167 586.93511009 C227.86271843 588.39469034 226.7772449 589.8590451 225.69964886 591.32915306 C221.39419097 597.07690478 216.53314608 602.32234621 209.94818401 605.44951439 C209.32685589 605.7550222 208.70552776 606.06053001 208.06537151 606.37529564 C199.31250988 609.72197803 190.35933603 608.69918454 181.77630901 605.50029564 C174.88131123 602.02290514 170.51561143 597.66051757 166.01068401 591.44951439 C164.87622697 589.92536215 163.74077657 588.40194889 162.60443401 586.87920189 C162.02435589 586.09641869 161.44427776 585.31363548 160.84662151 584.50713158 C157.96052275 580.64999408 154.98253974 576.86569623 152.01068401 573.07451439 C147.04204495 566.71009763 142.15705665 560.28943499 137.32635784 553.81987572 C131.52888678 546.05801226 125.61141066 538.39087217 119.65521526 530.75029564 C113.90449693 523.3732605 108.17421364 515.9892048 102.58490276 508.48857689 C97.18214616 501.25625558 91.67462181 494.10190583 86.19916058 486.92461205 C83.43262085 483.29710279 80.66868493 479.667614 77.90472698 476.03813744 C71.350655 467.4322526 64.78837522 458.83272108 58.21380901 450.24248314 C56.09671796 447.47615962 53.98235702 444.7077806 51.87005901 441.93779564 C46.28736774 434.62053669 40.67400036 427.32959354 35.01068401 420.07451439 C30.04636136 413.71266945 25.16184528 407.29760839 20.3351469 400.83086205 C15.645073 394.54966741 10.86690132 388.33927526 6.07318401 382.13701439 C-5.29635661 367.39944204 -16.59837724 352.61081446 -27.73931599 337.69951439 C-32.39392047 331.47108983 -37.11082598 325.30437431 -41.94244099 319.21245384 C-45.79752533 314.33870908 -49.51689002 309.36966732 -53.22955036 304.38701439 C-57.71462944 298.38381974 -62.31316952 292.47290462 -66.92608356 286.56767845 C-70.8616773 281.52375086 -74.72065449 276.42976746 -78.54009724 271.29717064 C-81.51886396 267.35310799 -84.56754833 263.4661281 -87.61431599 259.57451439 C-92.49231604 253.33741712 -97.25424202 247.02933694 -101.92681599 240.63701439 C-106.47715652 234.4129708 -111.10958615 228.26891299 -115.86431599 222.19951439 C-122.81731832 213.32319497 -129.60127715 204.32709499 -136.32769489 195.27812767 C-137.6858895 193.45959841 -139.05703944 191.65268465 -140.43853474 189.85185814 C-149.87032955 177.36595833 -154.63183717 166.19635248 -152.57134724 150.41435814 C-150.71630144 142.75762551 -145.75532386 137.15661528 -140.92681599 131.13701439 C-140.26681599 130.14701439 -139.60681599 129.15701439 -138.92681599 128.13701439 C-138.26681599 128.13701439 -137.60681599 128.13701439 -136.92681599 128.13701439 C-136.65893269 127.54694603 -136.39104939 126.95687767 -136.11504841 126.34892845 C-134.91508116 124.11516981 -133.66069586 122.57428014 -131.91509724 120.74638939 C-131.32543171 120.12312767 -130.73576618 119.49986595 -130.128232 118.85771751 C-129.19321857 117.88221947 -129.19321857 117.88221947 -128.23931599 116.88701439 C-126.96232108 115.53895841 -125.68626822 114.19000937 -124.41119099 112.84013939 C-123.80339802 112.19754173 -123.19560505 111.55494408 -122.56939411 110.89287376 C-120.65830541 108.84998584 -118.8111671 106.75972165 -116.98931599 104.63701439 C-114.35680787 101.57565157 -111.55632679 98.74635536 -108.67681599 95.91826439 C-106.84439111 94.05311764 -105.13328464 92.11773693 -103.42681599 90.13701439 C-101.18123659 87.5305383 -98.88130087 85.04766918 -96.42681599 82.63701439 C-94.13355563 80.37903496 -91.96253571 78.07704935 -89.86431599 75.63701439 C-86.32847762 71.53191407 -82.6335396 67.58698418 -78.92681599 63.63701439 C-73.59347338 57.96254732 -73.59347338 57.96254732 -68.42681599 52.13701439 C-64.48518807 47.55512204 -60.31945473 43.18168024 -56.18731403 38.77251244 C-50.90442892 33.12970222 -45.73575735 27.39033225 -40.57915974 21.63213158 C-39.13680573 20.02569507 -37.68858476 18.42471292 -36.23931599 16.82451439 C-35.3691988 15.85900658 -34.49908161 14.89349876 -33.60259724 13.89873314 C-28.90560481 9.0508884 -24.7393051 5.70519225 -18.36431599 3.38701439 C-17.26990192 2.97967064 -16.17548786 2.57232689 -15.04790974 2.15263939 C-9.92366323 0.48517494 -5.39253891 0.01025298 0 0 Z " fill="#1280D4" transform="translate(315.9268159866333,207.8629856109619)"/>
<path d="M0 0 C122.76 0 245.52 0 372 0 C371.40670396 7.11955243 370.80820708 14.0552491 369.73046875 21.0859375 C369.54896019 22.30452454 369.54896019 22.30452454 369.36378479 23.54772949 C369.10692511 25.2709661 368.84847313 26.99396604 368.58850098 28.71673584 C367.90347397 33.25782889 367.23052061 37.80070261 366.55859375 42.34375 C366.42446075 43.24978973 366.29032776 44.15582947 366.15213013 45.08932495 C364.76214223 54.52836946 363.50271642 63.98295014 362.29370117 73.44677734 C362.15037354 74.5548877 362.0070459 75.66299805 361.859375 76.8046875 C361.74045898 77.74296387 361.62154297 78.68124023 361.49902344 79.64794922 C360.78398582 84.45101503 359.86866739 89.22232934 359 94 C318.08 94.33 277.16 94.66 235 95 C226.53754403 152.18517305 226.53754403 152.18517305 218.63867188 209.44848633 C217.18105838 220.4058237 215.6699605 231.34996341 214.02734375 242.28125 C212.64751326 251.47161854 211.35345189 260.66892692 210.140625 269.8828125 C208.47804117 282.51064309 206.74552687 295.12774181 204.984375 307.7421875 C204.86616646 308.58918339 204.74795792 309.43617928 204.6261673 310.30884171 C203.66904227 317.16445189 202.70930794 324.01969431 201.75 330.875 C199.8525 344.44625 197.955 358.0175 196 372 C161.68 372 127.36 372 92 372 C93.12461346 357.38002505 93.12461346 357.38002505 93.9362793 351.20507812 C94.02444223 350.52645847 94.11260517 349.84783882 94.20343971 349.14865494 C94.39247107 347.69679554 94.58302157 346.2451332 94.77501869 344.79366302 C95.08442216 342.45409654 95.3895268 340.11400121 95.69364929 337.77374268 C96.12992095 334.41891868 96.56771873 331.06429957 97.0067749 327.70983887 C100.31556086 302.41080685 103.55823888 277.10920559 106.375 251.75 C106.49310028 250.68682556 106.61120056 249.62365112 106.73287964 248.52825928 C107.18335616 244.46405756 107.63240163 240.39970296 108.07881165 236.33505249 C109.01589834 227.80934183 109.99435034 219.28882038 110.99737549 210.77062988 C111.23552596 208.74793315 111.47206325 206.72504667 111.70849609 204.70214844 C112.40166418 198.82627613 113.13071628 192.95742971 113.9206543 187.09375 C115.65557424 174.15317461 117.29211188 161.19978803 118.94116211 148.24804688 C119.35546529 144.99554666 119.77156528 141.74328387 120.18920898 138.49121094 C120.70013958 134.51258727 121.20784593 130.53356398 121.71336174 126.55424881 C121.90400636 125.05766434 122.0957287 123.56121668 122.28863716 122.06492233 C122.55950707 119.96211706 122.82620082 117.8588174 123.09204102 115.75537109 C123.24367203 114.56817474 123.39530304 113.38097839 123.55152893 112.1578064 C124.16704725 106.45129332 124.5597918 100.72270662 125 95 C57.185 94.505 57.185 94.505 -12 94 C-9.68194481 73.1375033 -9.68194481 73.1375033 -8.42686462 63.26383972 C-8.33627211 62.55002829 -8.24567959 61.83621685 -8.15234184 61.10077477 C-8.05952997 60.37013628 -7.9667181 59.6394978 -7.87109375 58.88671875 C-7.67449814 57.33259419 -7.47797154 55.7784609 -7.2815094 54.22431946 C-6.87487043 51.01018763 -6.46721871 47.79618635 -6.05883789 44.58227539 C-5.53663788 40.47172425 -5.01737213 36.36080824 -4.4988699 32.24978924 C-4.0960762 29.05916809 -3.69160429 25.86876139 -3.28663826 22.6784153 C-3.09431864 21.1614766 -2.90255205 19.64446768 -2.71136284 18.12738609 C-2.44529225 16.01788697 -2.17692011 13.90869281 -1.90795898 11.79956055 C-1.68051247 10.0056916 -1.68051247 10.0056916 -1.44847107 8.17558289 C-1.06145276 5.43514141 -0.54277785 2.71388925 0 0 Z " fill="#FEFEFE" transform="translate(327,298)"/>
<path d="M0 0 C1.49202202 0.00370315 2.98404523 0.00695002 4.47606915 0.00978523 C8.53988627 0.01880652 12.60365684 0.0342271 16.66744936 0.05076802 C21.06329773 0.06751302 25.45916149 0.07821622 29.85502625 0.0896759 C37.45919413 0.1103157 45.06334224 0.13473149 52.66749001 0.16175652 C63.66163384 0.20082401 74.65578927 0.23412755 85.64995589 0.26605178 C103.48989227 0.31800965 121.32981084 0.37458968 139.16972351 0.43409729 C156.49328418 0.49187259 173.81684961 0.54745807 191.14042664 0.60011292 C192.74380065 0.60498749 192.74380065 0.60498749 194.37956605 0.60996055 C199.74232928 0.62625096 205.10509263 0.64249848 210.46785605 0.65872467 C254.91448029 0.79326289 299.36107824 0.93531122 343.80766296 1.08229065 C343.80766296 1.74229065 343.80766296 2.40229065 343.80766296 3.08229065 C221.04766296 3.08229065 98.28766296 3.08229065 -28.19233704 3.08229065 C-28.52233704 7.37229065 -28.85233704 11.66229065 -29.19233704 16.08229065 C-29.67860482 19.86409344 -30.18618472 23.62644873 -30.75483704 27.39479065 C-30.89341125 28.33773987 -31.03198547 29.28068909 -31.17475891 30.25221252 C-31.50999748 32.52952277 -31.84919057 34.80616106 -32.19233704 37.08229065 C-32.52233704 37.08229065 -32.85233704 37.08229065 -33.19233704 37.08229065 C-33.21940149 34.18639413 -33.23920733 31.2907527 -33.25483704 28.39479065 C-33.26321594 27.57816956 -33.27159485 26.76154846 -33.28022766 25.92018127 C-33.29675755 21.83729981 -33.22268802 18.06577358 -32.19233704 14.08229065 C-31.53233704 14.08229065 -30.87233704 14.08229065 -30.19233704 14.08229065 C-30.21554016 13.4790094 -30.23874329 12.87572815 -30.26264954 12.25416565 C-30.28069641 11.4549469 -30.29874329 10.65572815 -30.31733704 9.83229065 C-30.34054016 9.0433844 -30.36374329 8.25447815 -30.38764954 7.44166565 C-30.16176828 4.71302009 -29.77622869 3.32283713 -28.19233704 1.08229065 C-25.68738014 0.47580868 -25.68738014 0.47580868 -22.5168581 0.33743382 C-20.75139761 0.2545655 -20.75139761 0.2545655 -18.95027125 0.17002308 C-12.63167729 0.02250969 -6.32005364 -0.03205938 0 0 Z " fill="#015DC5" transform="translate(355.1923370361328,294.91770935058594)"/>
<path d="M0 0 C0.99 0.99 0.99 0.99 2 2 C1.01 2 0.02 2 -1 2 C-3.00461299 2.65266469 -5.00379834 3.32204472 -7 4 C-8.39261519 4.3666165 -9.78863631 4.7204984 -11.1875 5.0625 C-16.8605073 6.4575018 -18.43562678 7.46352499 -22 12 C-25.51724138 15 -25.51724138 15 -28 15 C-28.33 15.99 -28.66 16.98 -29 18 C-29.66 18 -30.32 18 -31 18 C-31.495 20.475 -31.495 20.475 -32 23 C-32.928125 23.0928125 -32.928125 23.0928125 -33.875 23.1875 C-36.2501999 23.80875315 -36.2501999 23.80875315 -37.0625 26.375 C-37.5265625 27.674375 -37.5265625 27.674375 -38 29 C-39.375 30.5625 -39.375 30.5625 -41 32 C-43.36987615 34.29088028 -45.54741944 36.63329801 -47.625 39.1875 C-50 42 -50 42 -52 43 C-52.30292969 43.62003906 -52.60585938 44.24007812 -52.91796875 44.87890625 C-54.11004546 47.21572089 -55.27814744 48.3091158 -57.3125 49.9375 C-63.05917238 54.65944284 -63.05917238 54.65944284 -67.5 60.5625 C-69.26170817 63.42527578 -71.38495519 64.92137464 -74 67 C-75.17574711 69.09989652 -75.17574711 69.09989652 -76 71 C-76.99 71.495 -76.99 71.495 -78 72 C-78.28875 72.639375 -78.5775 73.27875 -78.875 73.9375 C-80 76 -80 76 -81.8125 76.8125 C-84.79311625 78.43054882 -86.04653353 80.72229755 -87.8515625 83.5390625 C-88.23054688 84.02117187 -88.60953125 84.50328125 -89 85 C-89.66 85 -90.32 85 -91 85 C-91 85.66 -91 86.32 -91 87 C-91.99 87 -92.98 87 -94 87 C-94.04125 87.721875 -94.0825 88.44375 -94.125 89.1875 C-95.34258459 93.10116476 -97.87045416 94.4452687 -101 97 C-101.69313908 98.65583225 -102.36474424 100.32110979 -103 102 C-104.32821869 102.67679933 -105.66234106 103.34205564 -107 104 C-108.78086984 105.54030934 -108.78086984 105.54030934 -110.4375 107.3125 C-110.99308594 107.88613281 -111.54867187 108.45976562 -112.12109375 109.05078125 C-112.74113281 109.69402344 -113.36117187 110.33726562 -114 111 C-114.78503906 111.76699219 -115.57007813 112.53398437 -116.37890625 113.32421875 C-119.2556936 116.26102849 -121.87950922 119.33632626 -124.5 122.5 C-127.16072126 125.71224332 -129.79437808 128.7989988 -132.78125 131.71875 C-135.1997452 133.87465382 -135.1997452 133.87465382 -136 137 C-136.95132813 137.90878906 -136.95132813 137.90878906 -137.921875 138.8359375 C-142.60802076 143.71587124 -144.2171238 151.49272581 -144.4375 158.125 C-144.20988362 163.36017677 -142.76510476 168.0959651 -141 173 C-140.4740625 174.5159375 -140.4740625 174.5159375 -139.9375 176.0625 C-139.15853641 178.17503935 -139.15853641 178.17503935 -137 179 C-135.82513503 181.62616876 -134.90985138 184.27044585 -134 187 C-133.34 187 -132.68 187 -132 187 C-129.18687923 189.26864578 -127.7309601 191.37896521 -126.4375 194.6875 C-125.963125 195.780625 -125.48875 196.87375 -125 198 C-124.01 198.33 -123.02 198.66 -122 199 C-121.67 199.99 -121.34 200.98 -121 202 C-120.01439389 203.34400833 -119.01241685 204.67607028 -118 206 C-117.505 206.86625 -117.01 207.7325 -116.5 208.625 C-115.06865192 211.24838109 -115.06865192 211.24838109 -112 213 C-112 213.66 -112 214.32 -112 215 C-111.34 215 -110.68 215 -110 215 C-108.46520929 217.30218606 -107.17778427 219.62220843 -106 222.125 C-105.0856117 224.07325264 -105.0856117 224.07325264 -103.4375 225.5 C-101.73683989 227.27460185 -101.41205818 228.61006256 -101 231 C-105.22944707 226.98241762 -108.76682201 222.62499576 -112.3125 218 C-113.21186279 216.83271362 -113.21186279 216.83271362 -114.12939453 215.6418457 C-115.41584487 213.97032077 -116.70062435 212.2975088 -117.98388672 210.62353516 C-120.04353717 207.94334579 -122.11664859 205.27397508 -124.19140625 202.60546875 C-138.65181188 183.93024462 -138.65181188 183.93024462 -144 174 C-144.56267578 172.97519531 -144.56267578 172.97519531 -145.13671875 171.9296875 C-148.88596431 163.82045955 -148.09143504 152.81406714 -145.2578125 144.51953125 C-142.58807987 139.17177489 -138.72255135 134.64082778 -135 130 C-134.34 129.01 -133.68 128.02 -133 127 C-132.34 127 -131.68 127 -131 127 C-130.7321167 126.40993164 -130.4642334 125.81986328 -130.18823242 125.21191406 C-128.98826517 122.97815542 -127.73387987 121.43726575 -125.98828125 119.609375 C-125.39861572 118.98611328 -124.8089502 118.36285156 -124.20141602 117.72070312 C-123.26640259 116.74520508 -123.26640259 116.74520508 -122.3125 115.75 C-121.03550509 114.40194402 -119.75945223 113.05299498 -118.484375 111.703125 C-117.87658203 111.06052734 -117.26878906 110.41792969 -116.64257812 109.75585938 C-114.73148942 107.71297145 -112.88435111 105.62270726 -111.0625 103.5 C-108.42999189 100.43863718 -105.62951081 97.60934097 -102.75 94.78125 C-100.91757513 92.91610326 -99.20646865 90.98072254 -97.5 89 C-95.2544206 86.39352391 -92.95448488 83.91065479 -90.5 81.5 C-88.20673964 79.24202057 -86.03571972 76.94003496 -83.9375 74.5 C-80.40166164 70.39489968 -76.70672361 66.4499698 -73 62.5 C-67.66665739 56.82553294 -67.66665739 56.82553294 -62.5 51 C-58.55837208 46.41810765 -54.39263874 42.04466585 -50.26049805 37.63549805 C-44.97761293 31.99268783 -39.80894137 26.25331786 -34.65234375 20.49511719 C-33.20998975 18.88868068 -31.76176877 17.28769854 -30.3125 15.6875 C-29.44238281 14.72199219 -28.57226562 13.75648438 -27.67578125 12.76171875 C-23.01178091 7.9479257 -18.80635225 4.5523821 -12.5 2.1875 C-11.4171875 1.76855469 -10.334375 1.34960938 -9.21875 0.91796875 C-5.93222238 -0.01932978 -3.39595979 -0.32690992 0 0 Z " fill="#0B43B3" transform="translate(310,209)"/>
<path d="M0 0 C0.33 0 0.66 0 1 0 C1.0555941 1.62458315 1.09348587 3.24977141 1.125 4.875 C1.14820313 5.77992188 1.17140625 6.68484375 1.1953125 7.6171875 C0.9347442 12.13023039 -0.11344548 16.56722739 -1 21 C44.21 21 89.42 21 136 21 C136 21.33 136 21.66 136 22 C118.18945181 22.2238906 100.37880033 22.42485203 82.56769085 22.59840012 C74.29797452 22.6795153 66.02846687 22.76817729 57.7590332 22.87451172 C50.55272436 22.96715666 43.34642407 23.04573777 36.13978034 23.10732102 C32.3226485 23.14043388 28.5058868 23.18066219 24.6890316 23.2377243 C21.09813591 23.29118633 17.50755317 23.32587382 13.9163208 23.34602928 C11.96654321 23.36189938 10.01696109 23.39779762 8.06745911 23.43421936 C6.91059601 23.43713486 5.75373291 23.44005035 4.56181335 23.4430542 C3.55429362 23.45411572 2.54677389 23.46517723 1.50872326 23.47657394 C-1 23 -1 23 -2.83589458 21.17543411 C-4.35231058 18.34161594 -4.21577828 16.16474809 -4 13 C-3.01 13.33 -2.02 13.66 -1 14 C-1.20625 12.80375 -1.4125 11.6075 -1.625 10.375 C-2.13581838 6.4423982 -1.56734717 3.6878757 0 0 Z " fill="#0046BE" transform="translate(316,371)"/>
<path d="M0 0 C1.44277632 2.84655869 2.81175104 5.71639675 4.125 8.625 C4.47820312 9.40101563 4.83140625 10.17703125 5.1953125 10.9765625 C6 13 6 13 6 15 C6.66 15.33 7.32 15.66 8 16 C9.17486497 18.62616876 10.09014862 21.27044585 11 24 C11.66 24 12.32 24 13 24 C15.81312077 26.26864578 17.2690399 28.37896521 18.5625 31.6875 C19.036875 32.780625 19.51125 33.87375 20 35 C21.485 35.495 21.485 35.495 23 36 C23.33 36.99 23.66 37.98 24 39 C24.98560611 40.34400833 25.98758315 41.67607028 27 43 C27.495 43.86625 27.99 44.7325 28.5 45.625 C29.93134808 48.24838109 29.93134808 48.24838109 33 50 C33 50.66 33 51.32 33 52 C33.66 52 34.32 52 35 52 C36.53479071 54.30218606 37.82221573 56.62220843 39 59.125 C39.9143883 61.07325264 39.9143883 61.07325264 41.5625 62.5 C43.26316011 64.27460185 43.58794182 65.61006256 44 68 C39.77055293 63.98241762 36.23317799 59.62499576 32.6875 55 C32.0879248 54.22180908 31.48834961 53.44361816 30.87060547 52.6418457 C29.58415513 50.97032077 28.29937565 49.2975088 27.01611328 47.62353516 C24.95646283 44.94334579 22.88335141 42.27397508 20.80859375 39.60546875 C-0.36080002 12.26720054 -0.36080002 12.26720054 0 0 Z " fill="#0F4DB9" transform="translate(165,372)"/>
<path d="M0 0 C3.75376152 1.25125384 4.24073289 2.5652404 6 6 C6 6.66 6 7.32 6 8 C6.99 8 7.98 8 9 8 C11.35723489 10.53184488 12 11.47190093 12 15 C12.66 15 13.32 15 14 15 C14 15.99 14 16.98 14 18 C14.91458984 18.35771484 14.91458984 18.35771484 15.84765625 18.72265625 C18.50333105 20.29871008 19.12569968 21.67318722 20.4375 24.4375 C22.45347128 28.35674851 24.09464078 29.87994785 28 32 C28 33.32 28 34.64 28 36 C28.66 36.33 29.32 36.66 30 37 C31.76164986 38.92713818 33.35729773 40.96823666 35 43 C34.34 43.66 33.68 44.32 33 45 C24.29253965 34.29809342 15.92480495 23.36839031 7.70800781 12.28564453 C6.55778142 10.74641933 5.3953674 9.21623545 4.22167969 7.69482422 C3.67157227 6.97955566 3.12146484 6.26428711 2.5546875 5.52734375 C2.06210449 4.8943335 1.56952148 4.26132324 1.06201172 3.60913086 C0 2 0 2 0 0 Z " fill="#0E55C0" transform="translate(210,441)"/>
<path d="M0 0 C3.37462715 0.54723683 5.08235 1.0549 8 3 C10.63344011 4.44414458 13.06267935 5.37057415 16 6 C16 6.66 16 7.32 16 8 C16.804375 7.835 17.60875 7.67 18.4375 7.5 C21.30347429 7.09775799 23.64466065 7.01870987 26.5 7.125 C30.74141711 7.18894096 33.26976098 6.07235501 37 4 C40.375 3.3125 40.375 3.3125 43 3 C38.68332712 8.03611837 32.86726485 9.6325496 26.4921875 10.23828125 C16.23747432 10.52908655 7.90607966 7.50055438 0 1 C0 0.67 0 0.34 0 0 Z " fill="#1AA0E7" transform="translate(488,806)"/>
<path d="M0 0 C0.33 0 0.66 0 1 0 C1.0555941 1.62458315 1.09348587 3.24977141 1.125 4.875 C1.14820313 5.77992188 1.17140625 6.68484375 1.1953125 7.6171875 C0.9347442 12.13023039 -0.11344548 16.56722739 -1 21 C7.25 21 15.5 21 24 21 C24 21.33 24 21.66 24 22 C17.84570456 22.70334805 11.69235159 23.13870219 5.5 23.3125 C3.75203125 23.36857422 3.75203125 23.36857422 1.96875 23.42578125 C-1 23 -1 23 -2.89453125 21.18359375 C-4.33060619 18.34696516 -4.21372042 16.13456618 -4 13 C-3.01 13.33 -2.02 13.66 -1 14 C-1.20625 12.80375 -1.4125 11.6075 -1.625 10.375 C-2.13581838 6.4423982 -1.56734717 3.6878757 0 0 Z " fill="#034BBD" transform="translate(316,371)"/>
<path d="M0 0 C3.07719885 1.49701566 4.7159204 2.40915074 6.22265625 5.54296875 C8.63135016 10.22801075 11.83584384 14.0910055 15.125 18.1875 C16.40223026 19.7821258 17.67584205 21.37965853 18.9453125 22.98046875 C19.50750488 23.68067139 20.06969727 24.38087402 20.64892578 25.10229492 C22 27 22 27 23 30 C23.99 30 24.98 30 26 30 C26.66 32.31 27.32 34.62 28 37 C23.59142778 32.83174468 19.93878656 28.24571892 16.25 23.4375 C15.33226807 22.24737305 15.33226807 22.24737305 14.39599609 21.03320312 C12.59345568 18.6917491 10.796613 16.34600318 9 14 C8.02866358 12.74087172 7.05731114 11.48175581 6.0859375 10.22265625 C5.26489403 9.14899609 4.44452342 8.07482086 3.625 7 C2.91601562 6.071875 2.20703125 5.14375 1.4765625 4.1875 C0 2 0 2 0 0 Z " fill="#0F59C4" transform="translate(245,487)"/>
<path d="M0 0 C0.33 0 0.66 0 1 0 C1.16690529 7.2376202 0.53630726 14.19845534 -0.375 21.375 C-0.50132812 22.45394531 -0.62765625 23.53289062 -0.7578125 24.64453125 C-0.88671875 25.67707031 -1.015625 26.70960938 -1.1484375 27.7734375 C-1.26364746 28.70591309 -1.37885742 29.63838867 -1.49755859 30.59912109 C-2 33 -2 33 -4 36 C-4 35.01 -4 34.02 -4 33 C-4.66 32.67 -5.32 32.34 -6 32 C-5.69240822 30.02006459 -5.3787932 28.04106401 -5.0625 26.0625 C-4.88847656 24.96035156 -4.71445312 23.85820312 -4.53515625 22.72265625 C-4 20 -4 20 -3 19 C-2.81403613 17.12855409 -2.6766224 15.25219696 -2.5625 13.375 C-2.21089727 8.62269213 -1.53405578 4.49989695 0 0 Z " fill="#0948BA" transform="translate(321,334)"/>
<path d="M0 0 C0.33 0 0.66 0 1 0 C0.38472483 11.43563159 -1.29424625 22.68554124 -3 34 C-3.33 34 -3.66 34 -4 34 C-4.02706445 31.10410348 -4.04687029 28.20846205 -4.0625 25.3125 C-4.07087891 24.49587891 -4.07925781 23.67925781 -4.08789062 22.83789062 C-4.10442051 18.75500916 -4.03035098 14.98348293 -3 11 C-2.34 11 -1.68 11 -1 11 C-1.01160156 10.37351562 -1.02320313 9.74703125 -1.03515625 9.1015625 C-1.04417969 8.28429687 -1.05320312 7.46703125 -1.0625 6.625 C-1.07410156 5.81289063 -1.08570313 5.00078125 -1.09765625 4.1640625 C-1 2 -1 2 0 0 Z " fill="#0747BA" transform="translate(326,298)"/>
<path d="M0 0 C0.66 0.66 1.32 1.32 2 2 C1.01 2 0.02 2 -1 2 C-3.00461299 2.65266469 -5.00379834 3.32204472 -7 4 C-8.39261519 4.3666165 -9.78863631 4.7204984 -11.1875 5.0625 C-16.7539817 6.43130697 -18.58708224 7.41021404 -22 12 C-22.66 11.67 -23.32 11.34 -24 11 C-21.85007363 6.68566964 -19.98776252 5.09936344 -15.5625 3.25 C-14.61503906 2.84265625 -13.66757812 2.4353125 -12.69140625 2.015625 C-8.31462826 0.36401066 -4.7113219 -0.30726012 0 0 Z " fill="#0F46B5" transform="translate(310,209)"/>
<path d="M0 0 C0 3 0 3 -1.4375 4.5 C-1.953125 4.995 -2.46875 5.49 -3 6 C-3.33 6.99 -3.66 7.98 -4 9 C-4.804375 9.639375 -5.60875 10.27875 -6.4375 10.9375 C-9.06728882 12.73765879 -9.06728882 12.73765879 -9.9375 15.0625 C-11.54658543 17.99671461 -14.0166472 18.70289009 -17 20 C-15.59205918 16.83981842 -13.90337795 14.61032937 -11.5234375 12.109375 C-10.853125 11.40039062 -10.1828125 10.69140625 -9.4921875 9.9609375 C-8.79351562 9.23132813 -8.09484375 8.50171875 -7.375 7.75 C-6.31539062 6.63238281 -6.31539062 6.63238281 -5.234375 5.4921875 C-3.49372207 3.65744523 -1.74884777 1.826927 0 0 Z " fill="#0636AF" transform="translate(245,263)"/>
<path d="M0 0 C0.33 0 0.66 0 1 0 C1.18451025 11.52164009 1.18451025 11.52164009 0 17 C-0.66 17 -1.32 17 -2 17 C-2.33 18.32 -2.66 19.64 -3 21 C-4.35439668 18.29120665 -4.06501451 15.99066732 -4 13 C-3.01 13.33 -2.02 13.66 -1 14 C-1.20625 12.80375 -1.4125 11.6075 -1.625 10.375 C-2.13581838 6.4423982 -1.56734717 3.6878757 0 0 Z " fill="#0D56BF" transform="translate(316,371)"/>
<path d="M0 0 C0.33 0.99 0.66 1.98 1 3 C0.29875 3.495 -0.4025 3.99 -1.125 4.5 C-4.14417916 7.12537319 -6.20741676 9.8284325 -8.47265625 13.09765625 C-10.11492171 15.14313778 -11.8485944 16.51483613 -14 18 C-14.66 17.67 -15.32 17.34 -16 17 C-13.52110175 14.35391507 -11.04183636 11.70817443 -8.5625 9.0625 C-7.85544922 8.30775391 -7.14839844 7.55300781 -6.41992188 6.77539062 C-5.40961914 5.69741211 -5.40961914 5.69741211 -4.37890625 4.59765625 C-3.7557251 3.93258057 -3.13254395 3.26750488 -2.49047852 2.58227539 C-1.6705087 1.71180457 -0.8455974 0.8455974 0 0 Z " fill="#0C3BAF" transform="translate(196,316)"/>
<path d="M0 0 C6.70459519 5.0940919 6.70459519 5.0940919 7.9375 8.875 C7.958125 9.57625 7.97875 10.2775 8 11 C8.99 11.33 9.98 11.66 11 12 C12.1875 14.5625 12.1875 14.5625 13 17 C8.59935696 15.45771856 6.40404102 11.98573023 3.75 8.375 C3.29109375 7.76398437 2.8321875 7.15296875 2.359375 6.5234375 C1.23248748 5.0209208 0.11527563 3.51115591 -1 2 C-0.67 1.34 -0.34 0.68 0 0 Z " fill="#179AE5" transform="translate(472,783)"/>
<path d="M0 0 C0.66 0.33 1.32 0.66 2 1 C0.04366438 3.45992909 -1.91540887 5.91766376 -3.875 8.375 C-4.43058594 9.07367187 -4.98617187 9.77234375 -5.55859375 10.4921875 C-6.36103516 11.49765625 -6.36103516 11.49765625 -7.1796875 12.5234375 C-7.67194824 13.14138184 -8.16420898 13.75932617 -8.67138672 14.39599609 C-10 16 -10 16 -12 18 C-11.67 16.35 -11.34 14.7 -11 13 C-10.34 13 -9.68 13 -9 13 C-8.731875 12.071875 -8.46375 11.14375 -8.1875 10.1875 C-7.03968142 7.10651329 -6.41924128 6.04705032 -4 4 C-3.278125 3.278125 -2.55625 2.55625 -1.8125 1.8125 C-1.214375 1.214375 -0.61625 0.61625 0 0 Z " fill="#169FE8" transform="translate(560,772)"/>
<path d="M0 0 C0.66 0.33 1.32 0.66 2 1 C-3.94 8.92 -3.94 8.92 -10 17 C-10.66 16.67 -11.32 16.34 -12 16 C-11.67 15.01 -11.34 14.02 -11 13 C-10.34 13 -9.68 13 -9 13 C-8.67 11.35 -8.34 9.7 -8 8 C-7.01 8 -6.02 8 -5 8 C-4.5978125 6.2984375 -4.5978125 6.2984375 -4.1875 4.5625 C-3.5996875 2.7990625 -3.5996875 2.7990625 -3 1 C-2.01 0.67 -1.02 0.34 0 0 Z " fill="#129EE9" transform="translate(600,720)"/>
<path d="M0 0 C0.66 0.33 1.32 0.66 2 1 C1.39671875 1.72445312 0.7934375 2.44890625 0.171875 3.1953125 C-5.75276551 10.35092475 -5.75276551 10.35092475 -11 18 C-11.66 17.67 -12.32 17.34 -13 17 C-13 16.01 -13 15.02 -13 14 C-12.071875 13.87625 -12.071875 13.87625 -11.125 13.75 C-8.86279272 13.20077462 -8.86279272 13.20077462 -7.875 11.1875 C-7.58625 10.465625 -7.2975 9.74375 -7 9 C-6 7 -6 7 -5 5 C-4.34 5 -3.68 5 -3 5 C-2.690625 4.360625 -2.38125 3.72125 -2.0625 3.0625 C-1 1 -1 1 0 0 Z " fill="#169FE9" transform="translate(574,754)"/>
<path d="M0 0 C0.66 0.33 1.32 0.66 2 1 C0.05153583 3.50783613 -1.91034064 6.00483766 -3.875 8.5 C-4.43058594 9.21542969 -4.98617187 9.93085937 -5.55859375 10.66796875 C-6.36103516 11.68310547 -6.36103516 11.68310547 -7.1796875 12.71875 C-7.67194824 13.34716797 -8.16420898 13.97558594 -8.67138672 14.62304688 C-9.1098291 15.07744141 -9.54827148 15.53183594 -10 16 C-10.66 16 -11.32 16 -12 16 C-12 15.34 -12 14.68 -12 14 C-11.34 14 -10.68 14 -10 14 C-9.67 12.35 -9.34 10.7 -9 9 C-7.68 8.67 -6.36 8.34 -5 8 C-4.9175 7.4225 -4.835 6.845 -4.75 6.25 C-3.79468987 3.3840696 -2.21530827 2.0009236 0 0 Z " fill="#15A0E9" transform="translate(587,737)"/>
<path d="M0 0 C0.33 0 0.66 0 1 0 C1.19393875 2.14526099 1.37998676 4.29123677 1.5625 6.4375 C1.66691406 7.63246094 1.77132812 8.82742188 1.87890625 10.05859375 C1.91886719 11.02925781 1.95882812 11.99992188 2 13 C1.67 13.33 1.34 13.66 1 14 C0.95936168 15.66617115 0.957279 17.33388095 1 19 C0.01 19 -0.98 19 -2 19 C-1.34 12.73 -0.68 6.46 0 0 Z " fill="#2294E2" transform="translate(530,612)"/>
<path d="M0 0 C0 3 0 3 -1.71484375 4.9375 C-2.44832031 5.618125 -3.18179688 6.29875 -3.9375 7 C-7.20657054 10.00140949 -7.20657054 10.00140949 -9 14 C-9.66 13.67 -10.32 13.34 -11 13 C-9.7580393 9.56072421 -8.44259716 6.74792181 -6 4 C-5.34 4 -4.68 4 -4 4 C-4 3.34 -4 2.68 -4 2 C-2.68 1.34 -1.36 0.68 0 0 Z " fill="#1450B7" transform="translate(183,332)"/>
<path d="M0 0 C0.33 0.99 0.66 1.98 1 3 C0.278125 3.350625 -0.44375 3.70125 -1.1875 4.0625 C-4.83576744 6.5757509 -6.56527291 9.31312754 -9 13 C-9.66 12.67 -10.32 12.34 -11 12 C-5.03416856 2.22095672 -5.03416856 2.22095672 0 0 Z " fill="#0C4AB4" transform="translate(230,281)"/>
<path d="M0 0 C0.99 0.33 1.98 0.66 3 1 C1.71580959 2.67243402 0.42242815 4.33781447 -0.875 6 C-1.59429688 6.928125 -2.31359375 7.85625 -3.0546875 8.8125 C-3.69664062 9.534375 -4.33859375 10.25625 -5 11 C-5.66 11 -6.32 11 -7 11 C-6.58485103 6.1565954 -4.53791301 4.18412171 -1 1 C-0.67 0.67 -0.34 0.34 0 0 Z " fill="#19A1E9" transform="translate(639,668)"/>
<path d="M0 0 C0.99 0.33 1.98 0.66 3 1 C-0.38772897 5.69159716 -3.78185183 10.0299782 -8 14 C-8 13.01 -8 12.02 -8 11 C-7.34 11 -6.68 11 -6 11 C-4.8565644 8.79480277 -3.86774078 6.64455335 -3 4.3125 C-2 2 -2 2 0 1 C0 0.67 0 0.34 0 0 Z " fill="#18A0E9" transform="translate(611,704)"/>
<path d="M0 0 C0.76953125 1.640625 0.76953125 1.640625 1 4 C-0.80078125 6.796875 -0.80078125 6.796875 -3.3125 9.75 C-4.54419922 11.22726562 -4.54419922 11.22726562 -5.80078125 12.734375 C-6.52652344 13.48203125 -7.25226562 14.2296875 -8 15 C-8.66 15 -9.32 15 -10 15 C-9.67 14.01 -9.34 13.02 -9 12 C-8.34 12 -7.68 12 -7 12 C-6.72414063 11.42765625 -6.44828125 10.8553125 -6.1640625 10.265625 C-5.00532152 8.01035733 -3.73124294 5.89143622 -2.375 3.75 C-1.92898438 3.04359375 -1.48296875 2.3371875 -1.0234375 1.609375 C-0.68570313 1.07828125 -0.34796875 0.5471875 0 0 Z " fill="#169CE8" transform="translate(684,609)"/>
<path d="M0 0 C0.66 0.33 1.32 0.66 2 1 C0.57391198 3.00907998 -0.86466032 5.00669514 -2.3125 7 C-2.71662109 7.57234375 -3.12074219 8.1446875 -3.53710938 8.734375 C-4.61900525 10.21208644 -5.80455549 11.61254109 -7 13 C-7.99 13 -8.98 13 -10 13 C-10 11 -10 11 -8.125 9.0625 C-7.42375 8.381875 -6.7225 7.70125 -6 7 C-5.34 6.01 -4.68 5.02 -4 4 C-3.34 4 -2.68 4 -2 4 C-1.34 2.68 -0.68 1.36 0 0 Z " fill="#1C9DE7" transform="translate(705,583)"/>
<path d="M0 0 C0.99 0.33 1.98 0.66 3 1 C1.71580959 2.67243402 0.42242815 4.33781447 -0.875 6 C-1.59429688 6.928125 -2.31359375 7.85625 -3.0546875 8.8125 C-3.69664062 9.534375 -4.33859375 10.25625 -5 11 C-5.66 11 -6.32 11 -7 11 C-5.99503148 7.98509443 -4.85759227 6.30453465 -2.9375 3.8125 C-2.38964844 3.09707031 -1.84179688 2.38164063 -1.27734375 1.64453125 C-0.85582031 1.10183594 -0.43429687 0.55914063 0 0 Z " fill="#19A2E9" transform="translate(629,681)"/>
<path d="M0 0 C0.66 0.33 1.32 0.66 2 1 C-2.95 7.435 -2.95 7.435 -8 14 C-8.33 12.68 -8.66 11.36 -9 10 C-8.38125 9.7525 -7.7625 9.505 -7.125 9.25 C-4.57860966 7.75212333 -4.17316583 6.65917588 -3 4 C-2.02418241 2.64886795 -1.02970259 1.31053056 0 0 Z " fill="#1BA1E9" transform="translate(546,790)"/>
<path d="M0 0 C2.01275953 3.0191393 2.67024547 4.45513876 3 8 C2.0625 11.3125 2.0625 11.3125 1 14 C-1.36574234 10.4513865 -1.10865265 9.4235475 -0.625 5.3125 C-0.51414062 4.31863281 -0.40328125 3.32476563 -0.2890625 2.30078125 C-0.19367187 1.54152344 -0.09828125 0.78226563 0 0 Z " fill="#1D98E2" transform="translate(525,649)"/>
<path d="M0 0 C0.33 0 0.66 0 1 0 C1.22197585 2.10277123 1.42713637 4.20732302 1.625 6.3125 C1.74101562 7.48425781 1.85703125 8.65601563 1.9765625 9.86328125 C2 13 2 13 0 16 C0 15.01 0 14.02 0 13 C-0.66 12.67 -1.32 12.34 -2 12 C-1.34 8.04 -0.68 4.08 0 0 Z " fill="#145BC0" transform="translate(317,354)"/>
<path d="M0 0 C0.33 0 0.66 0 1 0 C1.2226746 1.43534841 1.42761906 2.87345525 1.625 4.3125 C1.74101563 5.11300781 1.85703125 5.91351563 1.9765625 6.73828125 C2 9 2 9 0 12 C-0.99 12.495 -0.99 12.495 -2 13 C-2.33 11.68 -2.66 10.36 -3 9 C-2.34 9 -1.68 9 -1 9 C-0.67 6.03 -0.34 3.06 0 0 Z " fill="#1D96E3" transform="translate(859,366)"/>
<path d="M0 0 C1.32 0.33 2.64 0.66 4 1 C1.69 3.97 -0.62 6.94 -3 10 C-3.66 9.67 -4.32 9.34 -5 9 C-3.97448721 5.92346162 -3.19203004 5.19203004 -1 3 C-0.67 2.01 -0.34 1.02 0 0 Z " fill="#169AE6" transform="translate(712,571)"/>
<path d="M0 0 C0.99 0.33 1.98 0.66 3 1 C0.03 4.96 0.03 4.96 -3 9 C-4 5 -4 5 -3 2 C-2.01 2 -1.02 2 0 2 C0 1.34 0 0.68 0 0 Z " fill="#1EA4E9" transform="translate(620,693)"/>
<path d="M0 0 C0.99 0 1.98 0 3 0 C4.41687119 4.25061356 3.19320039 6.71851625 2 11 C1.67 11 1.34 11 1 11 C0.67 7.37 0.34 3.74 0 0 Z " fill="#1F97E1" transform="translate(531,605)"/>
<path d="M0 0 C0.66 0 1.32 0 2 0 C2.33 3.3 2.66 6.6 3 10 C2.01 10.33 1.02 10.66 0 11 C0 7.37 0 3.74 0 0 Z " fill="#1666C6" transform="translate(320,326)"/>
<path d="M0 0 C0.66 0.66 1.32 1.32 2 2 C0.02 4.64 -1.96 7.28 -4 10 C-4.66 9.67 -5.32 9.34 -6 9 C-5.34 7.35 -4.68 5.7 -4 4 C-3.34 4 -2.68 4 -2 4 C-2 3.34 -2 2.68 -2 2 C-1.34 2 -0.68 2 0 2 C0 1.34 0 0.68 0 0 Z " fill="#1999E5" transform="translate(753,519)"/>
<path d="M0 0 C0.75 1.75 0.75 1.75 1 4 C-0.8125 6.25 -0.8125 6.25 -3 8 C-3.66 8 -4.32 8 -5 8 C-4.67 6.68 -4.34 5.36 -4 4 C-3.34 4 -2.68 4 -2 4 C-1.34 2.68 -0.68 1.36 0 0 Z " fill="#1C98E3" transform="translate(825,423)"/>
<path d="M0 0 C1.485 0.99 1.485 0.99 3 2 C3.6875 5.625 3.6875 5.625 4 9 C3.01 9.33 2.02 9.66 1 10 C0.67 8.68 0.34 7.36 0 6 C0.66 6 1.32 6 2 6 C2 5.34 2 4.68 2 4 C1.34 4 0.68 4 0 4 C0 2.68 0 1.36 0 0 Z " fill="#138DE0" transform="translate(857,355)"/>
<path d="M0 0 C0 3 0 3 -1.3125 4.5625 C-3 6 -3 6 -6 8 C-6.33 7.01 -6.66 6.02 -7 5 C-2.25 1.125 -2.25 1.125 0 0 Z " fill="#1652B9" transform="translate(263,245)"/>
<path d="M0 0 C3.16717283 1.58358642 4.73268318 2.45263699 6.3125 5.6875 C6.539375 6.450625 6.76625 7.21375 7 8 C6.01 8 5.02 8 4 8 C0 2.74285714 0 2.74285714 0 0 Z " fill="#175CC2" transform="translate(223,458)"/>
<path d="M0 0 C0.99 0 1.98 0 3 0 C1.62845496 2.95409701 0.01136276 5.44008376 -2 8 C-2.99 7.67 -3.98 7.34 -5 7 C-4.34 7 -3.68 7 -3 7 C-1.79371992 4.66785852 -0.8345262 2.50357861 0 0 Z " fill="#119EE7" transform="translate(658,642)"/>
<path d="M0 0 C3.16605307 2.11070205 4.19587357 3.73539027 6 7 C4.1875 6.8125 4.1875 6.8125 2 6 C0.25 3.4375 0.25 3.4375 -1 1 C-0.67 0.67 -0.34 0.34 0 0 Z " fill="#1599E6" transform="translate(466,775)"/>
<path d="M0 0 C2.5 2.3125 2.5 2.3125 5 5 C5 5.99 5 6.98 5 8 C3 6.625 3 6.625 1 5 C1 4.34 1 3.68 1 3 C0.34 3 -0.32 3 -1 3 C-0.67 2.01 -0.34 1.02 0 0 Z " fill="#1585DE" transform="translate(849,340)"/>
<path d="M0 0 C0.66 0.33 1.32 0.66 2 1 C0.8141763 4.37503669 -0.27573689 6.64722731 -3 9 C-3 7.68 -3 6.36 -3 5 C-2.34 5 -1.68 5 -1 5 C-0.67 3.35 -0.34 1.7 0 0 Z " fill="#1EA6EA" transform="translate(592,728)"/>
<path d="M0 0 C0.66 0.33 1.32 0.66 2 1 C-0.97 4.96 -0.97 4.96 -4 9 C-4.33 7.68 -4.66 6.36 -5 5 C-4.01 4.67 -3.02 4.34 -2 4 C-0.79117904 1.99983534 -0.79117904 1.99983534 0 0 Z " fill="#0E94E4" transform="translate(730,550)"/>
<path d="M0 0 C0.99 0.66 1.98 1.32 3 2 C1.35 4.31 -0.3 6.62 -2 9 C-3 6 -3 6 -1.5625 2.8125 C-1.046875 1.884375 -0.53125 0.95625 0 0 Z " fill="#1494E3" transform="translate(763,504)"/>
<path d="M0 0 C0.33 0.99 0.66 1.98 1 3 C-1.97 5.475 -1.97 5.475 -5 8 C-5.66 7.67 -6.32 7.34 -7 7 C-4.69 4.69 -2.38 2.38 0 0 Z " fill="#042FA9" transform="translate(196,316)"/>
<path d="M0 0 C0 3 0 3 -1 6 C-3.5625 7.1875 -3.5625 7.1875 -6 8 C-4.55746343 4.63408134 -2.66735273 2.48952921 0 0 Z " fill="#0333AC" transform="translate(220,290)"/>
<path d="M0 0 C0.33 0.66 0.66 1.32 1 2 C-0.32 3.65 -1.64 5.3 -3 7 C-3.66 6.67 -4.32 6.34 -5 6 C-2.25 1.125 -2.25 1.125 0 0 Z " fill="#1552BA" transform="translate(291,214)"/>
</svg>
